<?xml version="1.0" encoding="UTF-8"?>
<!-- Created with Inkscape (http://www.inkscape.org/) -->
<svg width="120" height="120" version="1.1" viewBox="0 0 120 120" xmlns="http://www.w3.org/2000/svg">
 <path d="m3.9727 6.3613v27.945h7.8691l2.8281 66.549 6.9199-56.922h16.969l6.4375 56.922 4.1523-66.549h17.148l-9.5488 81.697h27.195c-4.1759-2.1972-7.3595-5.016-9.5234-8.4707-2.2464-3.6905-3.3691-7.6805-3.3691-11.973 0-4.7735 1.3845-8.9251 4.1523-12.455 2.7679-3.53 6.4981-6.3194 11.191-8.3652-4.2521-2.7277-7.3402-5.4948-9.2656-8.3027-1.8854-2.8481-2.8281-6.5783-2.8281-11.191 0-4.7334 1.223-8.8256 3.6699-12.275 2.4469-3.4498 5.7559-6.0981 9.9277-7.9434 4.212-1.8854 8.9647-2.8262 14.26-2.8262 5.2203 0 9.8397 0.84602 13.867 2.5234v-28.363h-40.227a14.855 14.855 0 0 1 0.019531 0.40234 14.855 14.855 0 0 1-14.855 14.855 14.855 14.855 0 0 1-14.855-14.855 14.855 14.855 0 0 1 0.052734-0.40234zm98.186 38.775c-3.0888 0-5.4939 0.863-7.2187 2.5879-1.6848 1.6848-2.5273 4.192-2.5273 7.5215 0 2.9283 0.98169 5.3538 2.9473 7.2793 1.9656 1.8854 5.0352 3.6113 9.207 5.1758 2.7277-2.0057 4.5928-3.971 5.5957-5.8965 1.0028-1.9656 1.5039-4.1129 1.5039-6.4395 0-2.9684-0.8017-5.4144-2.4062-7.3398-1.5644-1.9255-3.9326-2.8887-7.1016-2.8887zm-72.203 12.938-6.4902 57.93h12.393zm68.113 21.781c-2.4469 1.5644-4.3938 3.5502-5.8379 5.957-1.4441 2.4068-2.166 5.2741-2.166 8.6035 0 3.4498 1.0041 6.2781 3.0098 8.4844 2.0458 2.1662 5.0726 3.25 9.084 3.25 4.1317 0 7.142-1.1043 9.0274-3.3106 1.8854-2.2464 2.8281-4.8723 2.8281-7.8809 0-2.7679-0.56235-5.0153-1.6856-6.7402-1.0831-1.7249-2.7886-3.2096-5.1152-4.4531-2.3266-1.2836-5.3738-2.5864-9.1445-3.9102z" fill="#85a6b2" fill-rule="evenodd"/>
</svg>
